<mxfile host="Electron" modified="2023-05-19T14:16:07.231Z" agent="Mozilla/5.0 (Windows NT 10.0; Win64; x64) AppleWebKit/537.36 (KHTML, like Gecko) draw.io/21.2.8 Chrome/112.0.5615.165 Electron/24.2.0 Safari/537.36" etag="BHEODWNLvTPUJU66y7ap" version="21.2.8" type="device">
  <diagram name="Page-1" id="aoVCBeHjAwDA9ONBkJ4o">
    <mxGraphModel dx="1555" dy="399" grid="1" gridSize="10" guides="1" tooltips="1" connect="1" arrows="1" fold="1" page="1" pageScale="1" pageWidth="850" pageHeight="1100" math="0" shadow="0">
      <root>
        <mxCell id="0" />
        <mxCell id="1" parent="0" />
        <mxCell id="MmN_OchnCAdmlSDN5dMQ-3" value="" style="edgeStyle=orthogonalEdgeStyle;rounded=0;orthogonalLoop=1;jettySize=auto;html=1;" parent="1" source="MmN_OchnCAdmlSDN5dMQ-1" target="MmN_OchnCAdmlSDN5dMQ-2" edge="1">
          <mxGeometry relative="1" as="geometry" />
        </mxCell>
        <mxCell id="MmN_OchnCAdmlSDN5dMQ-1" value="Inicio" style="ellipse;whiteSpace=wrap;html=1;" parent="1" vertex="1">
          <mxGeometry x="-540" width="80" height="40" as="geometry" />
        </mxCell>
        <mxCell id="MQs7vSqgr3YA6X8p40nq-104" value="" style="edgeStyle=orthogonalEdgeStyle;rounded=0;orthogonalLoop=1;jettySize=auto;html=1;" parent="1" source="MmN_OchnCAdmlSDN5dMQ-2" target="MQs7vSqgr3YA6X8p40nq-103" edge="1">
          <mxGeometry relative="1" as="geometry" />
        </mxCell>
        <mxCell id="MmN_OchnCAdmlSDN5dMQ-2" value="char Nom, Cat, EmpMax, EmpMin, CantEmp,&amp;nbsp;&lt;br&gt;Cat1, Cat2, Cat3, Cat4, CatMax&lt;br&gt;int Cant1, Cant2, Cant3, Cant4,&amp;nbsp;Sdo, CantMas1000, CantMas2000, &lt;br&gt;SuelMax = 0, SuelMin = 0, Por1, Por2, Por3, Por4" style="shape=parallelogram;perimeter=parallelogramPerimeter;whiteSpace=wrap;html=1;fixedSize=1;" parent="1" vertex="1">
          <mxGeometry x="-693" y="60" width="392" height="60" as="geometry" />
        </mxCell>
        <mxCell id="MQs7vSqgr3YA6X8p40nq-108" value="" style="edgeStyle=orthogonalEdgeStyle;rounded=0;orthogonalLoop=1;jettySize=auto;html=1;entryX=0.5;entryY=0;entryDx=0;entryDy=0;" parent="1" source="MmN_OchnCAdmlSDN5dMQ-5" target="MmN_OchnCAdmlSDN5dMQ-8" edge="1">
          <mxGeometry relative="1" as="geometry" />
        </mxCell>
        <mxCell id="MmN_OchnCAdmlSDN5dMQ-5" value="&quot;Cual es el nombre de la Categoria 1&quot;" style="shape=document;whiteSpace=wrap;html=1;boundedLbl=1;" parent="1" vertex="1">
          <mxGeometry x="-559.62" y="420" width="120" height="50" as="geometry" />
        </mxCell>
        <mxCell id="MQs7vSqgr3YA6X8p40nq-4" value="" style="edgeStyle=orthogonalEdgeStyle;rounded=0;orthogonalLoop=1;jettySize=auto;html=1;entryX=0.5;entryY=0;entryDx=0;entryDy=0;" parent="1" source="MmN_OchnCAdmlSDN5dMQ-8" target="MQs7vSqgr3YA6X8p40nq-2" edge="1">
          <mxGeometry relative="1" as="geometry" />
        </mxCell>
        <mxCell id="MmN_OchnCAdmlSDN5dMQ-8" value="Cat1" style="shape=parallelogram;perimeter=parallelogramPerimeter;whiteSpace=wrap;html=1;fixedSize=1;" parent="1" vertex="1">
          <mxGeometry x="-560" y="480" width="120" height="40" as="geometry" />
        </mxCell>
        <mxCell id="MQs7vSqgr3YA6X8p40nq-1" value="" style="edgeStyle=orthogonalEdgeStyle;rounded=0;orthogonalLoop=1;jettySize=auto;html=1;" parent="1" source="MQs7vSqgr3YA6X8p40nq-2" target="MQs7vSqgr3YA6X8p40nq-3" edge="1">
          <mxGeometry relative="1" as="geometry" />
        </mxCell>
        <mxCell id="MQs7vSqgr3YA6X8p40nq-2" value="&quot;Cual es el nombre de la Categoria 2&quot;" style="shape=document;whiteSpace=wrap;html=1;boundedLbl=1;" parent="1" vertex="1">
          <mxGeometry x="-560" y="540" width="120" height="50" as="geometry" />
        </mxCell>
        <mxCell id="MQs7vSqgr3YA6X8p40nq-12" value="" style="edgeStyle=orthogonalEdgeStyle;rounded=0;orthogonalLoop=1;jettySize=auto;html=1;entryX=0.5;entryY=0;entryDx=0;entryDy=0;" parent="1" source="MQs7vSqgr3YA6X8p40nq-3" target="MQs7vSqgr3YA6X8p40nq-6" edge="1">
          <mxGeometry relative="1" as="geometry" />
        </mxCell>
        <mxCell id="MQs7vSqgr3YA6X8p40nq-3" value="Cat2" style="shape=parallelogram;perimeter=parallelogramPerimeter;whiteSpace=wrap;html=1;fixedSize=1;" parent="1" vertex="1">
          <mxGeometry x="-560" y="610" width="120" height="40" as="geometry" />
        </mxCell>
        <mxCell id="MQs7vSqgr3YA6X8p40nq-5" value="" style="edgeStyle=orthogonalEdgeStyle;rounded=0;orthogonalLoop=1;jettySize=auto;html=1;" parent="1" source="MQs7vSqgr3YA6X8p40nq-6" target="MQs7vSqgr3YA6X8p40nq-8" edge="1">
          <mxGeometry relative="1" as="geometry" />
        </mxCell>
        <mxCell id="MQs7vSqgr3YA6X8p40nq-6" value="&quot;Cual es el nombre de la Categoria 3&quot;" style="shape=document;whiteSpace=wrap;html=1;boundedLbl=1;" parent="1" vertex="1">
          <mxGeometry x="-560" y="670" width="120" height="50" as="geometry" />
        </mxCell>
        <mxCell id="MQs7vSqgr3YA6X8p40nq-7" value="" style="edgeStyle=orthogonalEdgeStyle;rounded=0;orthogonalLoop=1;jettySize=auto;html=1;entryX=0.5;entryY=0;entryDx=0;entryDy=0;" parent="1" source="MQs7vSqgr3YA6X8p40nq-8" target="MQs7vSqgr3YA6X8p40nq-10" edge="1">
          <mxGeometry relative="1" as="geometry" />
        </mxCell>
        <mxCell id="MQs7vSqgr3YA6X8p40nq-8" value="Cat3" style="shape=parallelogram;perimeter=parallelogramPerimeter;whiteSpace=wrap;html=1;fixedSize=1;" parent="1" vertex="1">
          <mxGeometry x="-560" y="740" width="120" height="40" as="geometry" />
        </mxCell>
        <mxCell id="MQs7vSqgr3YA6X8p40nq-9" value="" style="edgeStyle=orthogonalEdgeStyle;rounded=0;orthogonalLoop=1;jettySize=auto;html=1;" parent="1" source="MQs7vSqgr3YA6X8p40nq-10" target="MQs7vSqgr3YA6X8p40nq-11" edge="1">
          <mxGeometry relative="1" as="geometry" />
        </mxCell>
        <mxCell id="MQs7vSqgr3YA6X8p40nq-10" value="&quot;Cual es el nombre de la Categoria 4&quot;" style="shape=document;whiteSpace=wrap;html=1;boundedLbl=1;" parent="1" vertex="1">
          <mxGeometry x="-560" y="800" width="120" height="50" as="geometry" />
        </mxCell>
        <mxCell id="MQs7vSqgr3YA6X8p40nq-16" value="" style="edgeStyle=orthogonalEdgeStyle;rounded=0;orthogonalLoop=1;jettySize=auto;html=1;" parent="1" source="MQs7vSqgr3YA6X8p40nq-11" edge="1">
          <mxGeometry relative="1" as="geometry">
            <mxPoint x="-500" y="930" as="targetPoint" />
          </mxGeometry>
        </mxCell>
        <mxCell id="MQs7vSqgr3YA6X8p40nq-11" value="Cat4" style="shape=parallelogram;perimeter=parallelogramPerimeter;whiteSpace=wrap;html=1;fixedSize=1;" parent="1" vertex="1">
          <mxGeometry x="-560" y="870" width="120" height="40" as="geometry" />
        </mxCell>
        <mxCell id="MQs7vSqgr3YA6X8p40nq-13" value="" style="edgeStyle=orthogonalEdgeStyle;rounded=0;orthogonalLoop=1;jettySize=auto;html=1;" parent="1" source="MQs7vSqgr3YA6X8p40nq-14" target="MQs7vSqgr3YA6X8p40nq-15" edge="1">
          <mxGeometry relative="1" as="geometry" />
        </mxCell>
        <mxCell id="MQs7vSqgr3YA6X8p40nq-14" value="&quot;Ingresa el nombre de un empleado&quot;" style="shape=document;whiteSpace=wrap;html=1;boundedLbl=1;" parent="1" vertex="1">
          <mxGeometry x="-560" y="930" width="120" height="50" as="geometry" />
        </mxCell>
        <mxCell id="MQs7vSqgr3YA6X8p40nq-35" value="" style="edgeStyle=orthogonalEdgeStyle;rounded=0;orthogonalLoop=1;jettySize=auto;html=1;" parent="1" source="MQs7vSqgr3YA6X8p40nq-15" target="MQs7vSqgr3YA6X8p40nq-33" edge="1">
          <mxGeometry relative="1" as="geometry" />
        </mxCell>
        <mxCell id="MQs7vSqgr3YA6X8p40nq-15" value="Nom" style="shape=parallelogram;perimeter=parallelogramPerimeter;whiteSpace=wrap;html=1;fixedSize=1;" parent="1" vertex="1">
          <mxGeometry x="-560" y="1000" width="120" height="40" as="geometry" />
        </mxCell>
        <mxCell id="MQs7vSqgr3YA6X8p40nq-26" value="" style="edgeStyle=orthogonalEdgeStyle;rounded=0;orthogonalLoop=1;jettySize=auto;html=1;entryX=0.5;entryY=0;entryDx=0;entryDy=0;" parent="1" source="MQs7vSqgr3YA6X8p40nq-18" target="MQs7vSqgr3YA6X8p40nq-23" edge="1">
          <mxGeometry relative="1" as="geometry" />
        </mxCell>
        <mxCell id="MQs7vSqgr3YA6X8p40nq-28" value="" style="edgeStyle=orthogonalEdgeStyle;rounded=0;orthogonalLoop=1;jettySize=auto;html=1;entryX=0.5;entryY=0;entryDx=0;entryDy=0;" parent="1" source="MQs7vSqgr3YA6X8p40nq-18" target="MQs7vSqgr3YA6X8p40nq-20" edge="1">
          <mxGeometry relative="1" as="geometry" />
        </mxCell>
        <mxCell id="MQs7vSqgr3YA6X8p40nq-29" value="" style="edgeStyle=orthogonalEdgeStyle;rounded=0;orthogonalLoop=1;jettySize=auto;html=1;" parent="1" source="MQs7vSqgr3YA6X8p40nq-18" target="MQs7vSqgr3YA6X8p40nq-22" edge="1">
          <mxGeometry relative="1" as="geometry">
            <Array as="points">
              <mxPoint x="-500" y="1250" />
              <mxPoint x="-450" y="1250" />
            </Array>
          </mxGeometry>
        </mxCell>
        <mxCell id="MQs7vSqgr3YA6X8p40nq-30" value="" style="edgeStyle=orthogonalEdgeStyle;rounded=0;orthogonalLoop=1;jettySize=auto;html=1;" parent="1" source="MQs7vSqgr3YA6X8p40nq-18" target="MQs7vSqgr3YA6X8p40nq-21" edge="1">
          <mxGeometry relative="1" as="geometry">
            <Array as="points">
              <mxPoint x="-500" y="1250" />
              <mxPoint x="-550" y="1250" />
            </Array>
          </mxGeometry>
        </mxCell>
        <mxCell id="MQs7vSqgr3YA6X8p40nq-18" value="&quot;A que categoria pertenece?&quot;" style="shape=document;whiteSpace=wrap;html=1;boundedLbl=1;" parent="1" vertex="1">
          <mxGeometry x="-560" y="1190" width="120" height="50" as="geometry" />
        </mxCell>
        <mxCell id="MQs7vSqgr3YA6X8p40nq-41" value="" style="edgeStyle=orthogonalEdgeStyle;rounded=0;orthogonalLoop=1;jettySize=auto;html=1;" parent="1" source="MQs7vSqgr3YA6X8p40nq-20" target="MQs7vSqgr3YA6X8p40nq-37" edge="1">
          <mxGeometry relative="1" as="geometry" />
        </mxCell>
        <mxCell id="MQs7vSqgr3YA6X8p40nq-20" value="Cat == 1" style="rhombus;whiteSpace=wrap;html=1;" parent="1" vertex="1">
          <mxGeometry x="-690" y="1267" width="80" height="80" as="geometry" />
        </mxCell>
        <mxCell id="MQs7vSqgr3YA6X8p40nq-50" value="" style="edgeStyle=orthogonalEdgeStyle;rounded=0;orthogonalLoop=1;jettySize=auto;html=1;entryX=0.5;entryY=0;entryDx=0;entryDy=0;" parent="1" source="MQs7vSqgr3YA6X8p40nq-21" target="MQs7vSqgr3YA6X8p40nq-43" edge="1">
          <mxGeometry relative="1" as="geometry">
            <mxPoint x="-550" y="1437" as="targetPoint" />
          </mxGeometry>
        </mxCell>
        <mxCell id="MQs7vSqgr3YA6X8p40nq-21" value="Cat == 2" style="rhombus;whiteSpace=wrap;html=1;" parent="1" vertex="1">
          <mxGeometry x="-590" y="1267" width="80" height="80" as="geometry" />
        </mxCell>
        <mxCell id="MQs7vSqgr3YA6X8p40nq-52" value="" style="edgeStyle=orthogonalEdgeStyle;rounded=0;orthogonalLoop=1;jettySize=auto;html=1;entryX=0.5;entryY=0;entryDx=0;entryDy=0;" parent="1" source="MQs7vSqgr3YA6X8p40nq-22" target="MQs7vSqgr3YA6X8p40nq-44" edge="1">
          <mxGeometry relative="1" as="geometry">
            <mxPoint x="-450" y="1437" as="targetPoint" />
          </mxGeometry>
        </mxCell>
        <mxCell id="MQs7vSqgr3YA6X8p40nq-22" value="Cat == 3" style="rhombus;whiteSpace=wrap;html=1;" parent="1" vertex="1">
          <mxGeometry x="-490" y="1267" width="80" height="80" as="geometry" />
        </mxCell>
        <mxCell id="MQs7vSqgr3YA6X8p40nq-54" value="" style="edgeStyle=orthogonalEdgeStyle;rounded=0;orthogonalLoop=1;jettySize=auto;html=1;entryX=0.5;entryY=0;entryDx=0;entryDy=0;" parent="1" source="MQs7vSqgr3YA6X8p40nq-23" target="MQs7vSqgr3YA6X8p40nq-45" edge="1">
          <mxGeometry relative="1" as="geometry">
            <mxPoint x="-350" y="1427" as="targetPoint" />
          </mxGeometry>
        </mxCell>
        <mxCell id="MQs7vSqgr3YA6X8p40nq-23" value="Cat == 4" style="rhombus;whiteSpace=wrap;html=1;" parent="1" vertex="1">
          <mxGeometry x="-390" y="1267" width="80" height="80" as="geometry" />
        </mxCell>
        <mxCell id="MQs7vSqgr3YA6X8p40nq-32" value="" style="edgeStyle=orthogonalEdgeStyle;rounded=0;orthogonalLoop=1;jettySize=auto;html=1;" parent="1" source="MQs7vSqgr3YA6X8p40nq-33" target="MQs7vSqgr3YA6X8p40nq-34" edge="1">
          <mxGeometry relative="1" as="geometry" />
        </mxCell>
        <mxCell id="MQs7vSqgr3YA6X8p40nq-33" value="&quot;Cuanto cobra el empleado?&quot;" style="shape=document;whiteSpace=wrap;html=1;boundedLbl=1;" parent="1" vertex="1">
          <mxGeometry x="-560" y="1060" width="120" height="50" as="geometry" />
        </mxCell>
        <mxCell id="MQs7vSqgr3YA6X8p40nq-36" value="" style="edgeStyle=orthogonalEdgeStyle;rounded=0;orthogonalLoop=1;jettySize=auto;html=1;" parent="1" source="MQs7vSqgr3YA6X8p40nq-34" edge="1">
          <mxGeometry relative="1" as="geometry">
            <mxPoint x="-500" y="1190" as="targetPoint" />
          </mxGeometry>
        </mxCell>
        <mxCell id="MQs7vSqgr3YA6X8p40nq-34" value="Sdo" style="shape=parallelogram;perimeter=parallelogramPerimeter;whiteSpace=wrap;html=1;fixedSize=1;" parent="1" vertex="1">
          <mxGeometry x="-560" y="1130" width="120" height="40" as="geometry" />
        </mxCell>
        <mxCell id="MQs7vSqgr3YA6X8p40nq-40" value="" style="edgeStyle=orthogonalEdgeStyle;rounded=0;orthogonalLoop=1;jettySize=auto;html=1;" parent="1" source="MQs7vSqgr3YA6X8p40nq-37" target="MQs7vSqgr3YA6X8p40nq-39" edge="1">
          <mxGeometry relative="1" as="geometry" />
        </mxCell>
        <mxCell id="MQs7vSqgr3YA6X8p40nq-48" value="" style="edgeStyle=orthogonalEdgeStyle;rounded=0;orthogonalLoop=1;jettySize=auto;html=1;" parent="1" source="MQs7vSqgr3YA6X8p40nq-37" target="MQs7vSqgr3YA6X8p40nq-42" edge="1">
          <mxGeometry relative="1" as="geometry" />
        </mxCell>
        <mxCell id="MQs7vSqgr3YA6X8p40nq-37" value="Sdo &amp;lt; 1000" style="rhombus;whiteSpace=wrap;html=1;" parent="1" vertex="1">
          <mxGeometry x="-690" y="1367" width="80" height="80" as="geometry" />
        </mxCell>
        <mxCell id="MQs7vSqgr3YA6X8p40nq-47" value="" style="edgeStyle=orthogonalEdgeStyle;rounded=0;orthogonalLoop=1;jettySize=auto;html=1;entryX=0;entryY=0.5;entryDx=0;entryDy=0;" parent="1" source="MQs7vSqgr3YA6X8p40nq-39" target="MQs7vSqgr3YA6X8p40nq-42" edge="1">
          <mxGeometry relative="1" as="geometry">
            <mxPoint x="-780" y="1507" as="targetPoint" />
            <Array as="points">
              <mxPoint x="-780" y="1497" />
            </Array>
          </mxGeometry>
        </mxCell>
        <mxCell id="MQs7vSqgr3YA6X8p40nq-39" value="CarMas1000++" style="rounded=0;whiteSpace=wrap;html=1;" parent="1" vertex="1">
          <mxGeometry x="-840" y="1387" width="120" height="40" as="geometry" />
        </mxCell>
        <mxCell id="OpPr-0mGblYPBCnxGGpf-1" value="" style="edgeStyle=orthogonalEdgeStyle;rounded=0;orthogonalLoop=1;jettySize=auto;html=1;" edge="1" parent="1" source="MQs7vSqgr3YA6X8p40nq-42" target="MQs7vSqgr3YA6X8p40nq-55">
          <mxGeometry relative="1" as="geometry" />
        </mxCell>
        <mxCell id="MQs7vSqgr3YA6X8p40nq-42" value="Cant1 ++" style="rounded=0;whiteSpace=wrap;html=1;" parent="1" vertex="1">
          <mxGeometry x="-690" y="1477" width="80" height="40" as="geometry" />
        </mxCell>
        <mxCell id="OpPr-0mGblYPBCnxGGpf-5" value="" style="edgeStyle=orthogonalEdgeStyle;rounded=0;orthogonalLoop=1;jettySize=auto;html=1;" edge="1" parent="1" source="MQs7vSqgr3YA6X8p40nq-43">
          <mxGeometry relative="1" as="geometry">
            <mxPoint x="-650" y="1537" as="targetPoint" />
            <Array as="points">
              <mxPoint x="-550" y="1537" />
            </Array>
          </mxGeometry>
        </mxCell>
        <mxCell id="MQs7vSqgr3YA6X8p40nq-43" value="Cant2 ++" style="rounded=0;whiteSpace=wrap;html=1;" parent="1" vertex="1">
          <mxGeometry x="-590" y="1477" width="80" height="40" as="geometry" />
        </mxCell>
        <mxCell id="OpPr-0mGblYPBCnxGGpf-6" style="edgeStyle=orthogonalEdgeStyle;rounded=0;orthogonalLoop=1;jettySize=auto;html=1;" edge="1" parent="1" source="MQs7vSqgr3YA6X8p40nq-44">
          <mxGeometry relative="1" as="geometry">
            <mxPoint x="-550" y="1537" as="targetPoint" />
            <Array as="points">
              <mxPoint x="-450" y="1537" />
            </Array>
          </mxGeometry>
        </mxCell>
        <mxCell id="MQs7vSqgr3YA6X8p40nq-44" value="Cant3 ++" style="rounded=0;whiteSpace=wrap;html=1;" parent="1" vertex="1">
          <mxGeometry x="-490" y="1477" width="80" height="40" as="geometry" />
        </mxCell>
        <mxCell id="OpPr-0mGblYPBCnxGGpf-7" style="edgeStyle=orthogonalEdgeStyle;rounded=0;orthogonalLoop=1;jettySize=auto;html=1;" edge="1" parent="1" source="MQs7vSqgr3YA6X8p40nq-45">
          <mxGeometry relative="1" as="geometry">
            <mxPoint x="-450" y="1537" as="targetPoint" />
            <Array as="points">
              <mxPoint x="-350" y="1537" />
            </Array>
          </mxGeometry>
        </mxCell>
        <mxCell id="MQs7vSqgr3YA6X8p40nq-45" value="Cant4 ++" style="rounded=0;whiteSpace=wrap;html=1;" parent="1" vertex="1">
          <mxGeometry x="-390" y="1477" width="80" height="40" as="geometry" />
        </mxCell>
        <mxCell id="MQs7vSqgr3YA6X8p40nq-63" value="" style="edgeStyle=orthogonalEdgeStyle;rounded=0;orthogonalLoop=1;jettySize=auto;html=1;" parent="1" source="MQs7vSqgr3YA6X8p40nq-55" target="MQs7vSqgr3YA6X8p40nq-62" edge="1">
          <mxGeometry relative="1" as="geometry" />
        </mxCell>
        <mxCell id="OpPr-0mGblYPBCnxGGpf-20" value="" style="edgeStyle=orthogonalEdgeStyle;rounded=0;orthogonalLoop=1;jettySize=auto;html=1;" edge="1" parent="1" source="MQs7vSqgr3YA6X8p40nq-55">
          <mxGeometry relative="1" as="geometry">
            <mxPoint x="-650" y="1720" as="targetPoint" />
            <Array as="points">
              <mxPoint x="-570" y="1607" />
              <mxPoint x="-570" y="1720" />
            </Array>
          </mxGeometry>
        </mxCell>
        <mxCell id="MQs7vSqgr3YA6X8p40nq-55" value="Sdo &amp;gt; 2000" style="rhombus;whiteSpace=wrap;html=1;" parent="1" vertex="1">
          <mxGeometry x="-689.9999999999999" y="1567" width="80" height="80" as="geometry" />
        </mxCell>
        <mxCell id="MQs7vSqgr3YA6X8p40nq-73" value="" style="edgeStyle=orthogonalEdgeStyle;rounded=0;orthogonalLoop=1;jettySize=auto;html=1;entryX=0.5;entryY=0.002;entryDx=0;entryDy=0;entryPerimeter=0;" parent="1" source="MQs7vSqgr3YA6X8p40nq-62" target="MQs7vSqgr3YA6X8p40nq-64" edge="1">
          <mxGeometry relative="1" as="geometry">
            <Array as="points">
              <mxPoint x="-649" y="1730" />
              <mxPoint x="-650" y="1730" />
            </Array>
          </mxGeometry>
        </mxCell>
        <mxCell id="MQs7vSqgr3YA6X8p40nq-62" value="CarMas2000++" style="rounded=0;whiteSpace=wrap;html=1;" parent="1" vertex="1">
          <mxGeometry x="-709.2" y="1667" width="120" height="40" as="geometry" />
        </mxCell>
        <mxCell id="OpPr-0mGblYPBCnxGGpf-9" value="" style="edgeStyle=orthogonalEdgeStyle;rounded=0;orthogonalLoop=1;jettySize=auto;html=1;" edge="1" parent="1" source="MQs7vSqgr3YA6X8p40nq-64" target="MQs7vSqgr3YA6X8p40nq-75">
          <mxGeometry relative="1" as="geometry" />
        </mxCell>
        <mxCell id="OpPr-0mGblYPBCnxGGpf-10" value="" style="edgeStyle=orthogonalEdgeStyle;rounded=0;orthogonalLoop=1;jettySize=auto;html=1;" edge="1" parent="1" source="MQs7vSqgr3YA6X8p40nq-64" target="MQs7vSqgr3YA6X8p40nq-69">
          <mxGeometry relative="1" as="geometry" />
        </mxCell>
        <mxCell id="MQs7vSqgr3YA6X8p40nq-64" value="Sdo &amp;gt; SuelMax" style="rhombus;whiteSpace=wrap;html=1;" parent="1" vertex="1">
          <mxGeometry x="-689.19" y="1727" width="80" height="80" as="geometry" />
        </mxCell>
        <mxCell id="MQs7vSqgr3YA6X8p40nq-68" value="SuelMax = Sdo" style="rounded=0;whiteSpace=wrap;html=1;" parent="1" vertex="1">
          <mxGeometry x="-709.1999999999999" y="1817" width="120" height="40" as="geometry" />
        </mxCell>
        <mxCell id="OpPr-0mGblYPBCnxGGpf-11" value="" style="edgeStyle=orthogonalEdgeStyle;rounded=0;orthogonalLoop=1;jettySize=auto;html=1;" edge="1" parent="1" source="MQs7vSqgr3YA6X8p40nq-69" target="MQs7vSqgr3YA6X8p40nq-77">
          <mxGeometry relative="1" as="geometry" />
        </mxCell>
        <mxCell id="MQs7vSqgr3YA6X8p40nq-69" value="Sdo &amp;lt; SuelMin" style="rhombus;whiteSpace=wrap;html=1;" parent="1" vertex="1">
          <mxGeometry x="-554.4300000000001" y="1727" width="80" height="80" as="geometry" />
        </mxCell>
        <mxCell id="MQs7vSqgr3YA6X8p40nq-71" value="SuelMin = Sdo" style="rounded=0;whiteSpace=wrap;html=1;" parent="1" vertex="1">
          <mxGeometry x="-574.43" y="1817" width="120" height="40" as="geometry" />
        </mxCell>
        <mxCell id="OpPr-0mGblYPBCnxGGpf-13" style="edgeStyle=orthogonalEdgeStyle;rounded=0;orthogonalLoop=1;jettySize=auto;html=1;entryX=0.5;entryY=0;entryDx=0;entryDy=0;" edge="1" parent="1" source="MQs7vSqgr3YA6X8p40nq-75" target="MQs7vSqgr3YA6X8p40nq-79">
          <mxGeometry relative="1" as="geometry" />
        </mxCell>
        <mxCell id="MQs7vSqgr3YA6X8p40nq-75" value="EmpMax = Emp" style="rounded=0;whiteSpace=wrap;html=1;" parent="1" vertex="1">
          <mxGeometry x="-710.19" y="1877" width="120" height="40" as="geometry" />
        </mxCell>
        <mxCell id="OpPr-0mGblYPBCnxGGpf-14" style="edgeStyle=orthogonalEdgeStyle;rounded=0;orthogonalLoop=1;jettySize=auto;html=1;" edge="1" parent="1" source="MQs7vSqgr3YA6X8p40nq-77">
          <mxGeometry relative="1" as="geometry">
            <mxPoint x="-650" y="1937" as="targetPoint" />
            <Array as="points">
              <mxPoint x="-514" y="1937" />
              <mxPoint x="-650" y="1937" />
            </Array>
          </mxGeometry>
        </mxCell>
        <mxCell id="MQs7vSqgr3YA6X8p40nq-77" value="EmpMin = Emp" style="rounded=0;whiteSpace=wrap;html=1;" parent="1" vertex="1">
          <mxGeometry x="-574.4300000000001" y="1877" width="120" height="40" as="geometry" />
        </mxCell>
        <mxCell id="MQs7vSqgr3YA6X8p40nq-82" value="" style="edgeStyle=orthogonalEdgeStyle;rounded=0;orthogonalLoop=1;jettySize=auto;html=1;" parent="1" source="MQs7vSqgr3YA6X8p40nq-79" target="MQs7vSqgr3YA6X8p40nq-80" edge="1">
          <mxGeometry relative="1" as="geometry" />
        </mxCell>
        <mxCell id="MQs7vSqgr3YA6X8p40nq-99" style="edgeStyle=orthogonalEdgeStyle;rounded=0;orthogonalLoop=1;jettySize=auto;html=1;exitX=0.5;exitY=1;exitDx=0;exitDy=0;entryX=0.5;entryY=0;entryDx=0;entryDy=0;" parent="1" source="MQs7vSqgr3YA6X8p40nq-79" target="MQs7vSqgr3YA6X8p40nq-89" edge="1">
          <mxGeometry relative="1" as="geometry" />
        </mxCell>
        <mxCell id="MQs7vSqgr3YA6X8p40nq-79" value="Cant1 &amp;gt; Cant2&lt;br&gt;&amp;amp;&amp;amp;&lt;br&gt;Cant2 &amp;lt; Cant3&lt;br&gt;&amp;amp;&amp;amp;&lt;br&gt;Cant3 &amp;lt; Cant4" style="rhombus;whiteSpace=wrap;html=1;" parent="1" vertex="1">
          <mxGeometry x="-725" y="1959" width="149.62" height="140" as="geometry" />
        </mxCell>
        <mxCell id="MQs7vSqgr3YA6X8p40nq-84" value="" style="edgeStyle=orthogonalEdgeStyle;rounded=0;orthogonalLoop=1;jettySize=auto;html=1;" parent="1" source="MQs7vSqgr3YA6X8p40nq-80" target="MQs7vSqgr3YA6X8p40nq-81" edge="1">
          <mxGeometry relative="1" as="geometry" />
        </mxCell>
        <mxCell id="MQs7vSqgr3YA6X8p40nq-97" value="" style="edgeStyle=orthogonalEdgeStyle;rounded=0;orthogonalLoop=1;jettySize=auto;html=1;" parent="1" source="MQs7vSqgr3YA6X8p40nq-80" target="MQs7vSqgr3YA6X8p40nq-91" edge="1">
          <mxGeometry relative="1" as="geometry" />
        </mxCell>
        <mxCell id="MQs7vSqgr3YA6X8p40nq-80" value="Cant1 &amp;lt; Cant2&lt;br&gt;&amp;amp;&amp;amp;&lt;br&gt;Cant2 &amp;gt; Cant3&lt;br&gt;&amp;amp;&amp;amp;&lt;br&gt;Cant3 &amp;lt; Cant4" style="rhombus;whiteSpace=wrap;html=1;" parent="1" vertex="1">
          <mxGeometry x="-556.3799999999999" y="1959" width="149.62" height="140" as="geometry" />
        </mxCell>
        <mxCell id="MQs7vSqgr3YA6X8p40nq-95" value="" style="edgeStyle=orthogonalEdgeStyle;rounded=0;orthogonalLoop=1;jettySize=auto;html=1;entryX=0.5;entryY=0;entryDx=0;entryDy=0;" parent="1" source="MQs7vSqgr3YA6X8p40nq-81" edge="1">
          <mxGeometry relative="1" as="geometry">
            <mxPoint x="-161.57000000000016" y="2119" as="targetPoint" />
          </mxGeometry>
        </mxCell>
        <mxCell id="MQs7vSqgr3YA6X8p40nq-96" value="" style="edgeStyle=orthogonalEdgeStyle;rounded=0;orthogonalLoop=1;jettySize=auto;html=1;" parent="1" source="MQs7vSqgr3YA6X8p40nq-81" edge="1">
          <mxGeometry relative="1" as="geometry">
            <mxPoint x="-306.79999999999995" y="2119" as="targetPoint" />
          </mxGeometry>
        </mxCell>
        <mxCell id="MQs7vSqgr3YA6X8p40nq-81" value="Cant1 &amp;lt; Cant2&lt;br&gt;&amp;amp;&amp;amp;&lt;br&gt;Cant2 &amp;lt; Cant3&lt;br&gt;&amp;amp;&amp;amp;&lt;br&gt;Cant3 &amp;gt; Cant4" style="rhombus;whiteSpace=wrap;html=1;" parent="1" vertex="1">
          <mxGeometry x="-381.56999999999994" y="1959" width="149.62" height="140" as="geometry" />
        </mxCell>
        <mxCell id="MQs7vSqgr3YA6X8p40nq-126" value="" style="edgeStyle=orthogonalEdgeStyle;rounded=0;orthogonalLoop=1;jettySize=auto;html=1;entryX=0;entryY=0.5;entryDx=0;entryDy=0;" parent="1" source="MQs7vSqgr3YA6X8p40nq-89" target="MQs7vSqgr3YA6X8p40nq-118" edge="1">
          <mxGeometry relative="1" as="geometry">
            <mxPoint x="-651.1899999999998" y="2229" as="targetPoint" />
            <Array as="points">
              <mxPoint x="-651" y="2180" />
            </Array>
          </mxGeometry>
        </mxCell>
        <mxCell id="MQs7vSqgr3YA6X8p40nq-89" value="CantMax = Cat1" style="rounded=0;whiteSpace=wrap;html=1;" parent="1" vertex="1">
          <mxGeometry x="-711.19" y="2118" width="120" height="40" as="geometry" />
        </mxCell>
        <mxCell id="MQs7vSqgr3YA6X8p40nq-124" value="" style="edgeStyle=orthogonalEdgeStyle;rounded=0;orthogonalLoop=1;jettySize=auto;html=1;" parent="1" source="MQs7vSqgr3YA6X8p40nq-91" target="MQs7vSqgr3YA6X8p40nq-118" edge="1">
          <mxGeometry relative="1" as="geometry">
            <mxPoint x="-481.56999999999994" y="2239" as="targetPoint" />
          </mxGeometry>
        </mxCell>
        <mxCell id="MQs7vSqgr3YA6X8p40nq-91" value="CantMax = Cat2" style="rounded=0;whiteSpace=wrap;html=1;" parent="1" vertex="1">
          <mxGeometry x="-541.5699999999999" y="2119" width="120" height="40" as="geometry" />
        </mxCell>
        <mxCell id="MQs7vSqgr3YA6X8p40nq-122" value="" style="edgeStyle=orthogonalEdgeStyle;rounded=0;orthogonalLoop=1;jettySize=auto;html=1;entryX=0.5;entryY=0;entryDx=0;entryDy=0;" parent="1" target="MQs7vSqgr3YA6X8p40nq-118" edge="1">
          <mxGeometry relative="1" as="geometry">
            <mxPoint x="-306.75999999999976" y="2239" as="targetPoint" />
            <mxPoint x="-366.76" y="2139" as="sourcePoint" />
            <Array as="points">
              <mxPoint x="-392" y="2139" />
            </Array>
          </mxGeometry>
        </mxCell>
        <mxCell id="MQs7vSqgr3YA6X8p40nq-92" value="CantMax = Cat3" style="rounded=0;whiteSpace=wrap;html=1;" parent="1" vertex="1">
          <mxGeometry x="-366.76" y="2119" width="120" height="40" as="geometry" />
        </mxCell>
        <mxCell id="MQs7vSqgr3YA6X8p40nq-120" value="" style="edgeStyle=orthogonalEdgeStyle;rounded=0;orthogonalLoop=1;jettySize=auto;html=1;entryX=1;entryY=0.5;entryDx=0;entryDy=0;" parent="1" target="MQs7vSqgr3YA6X8p40nq-118" edge="1">
          <mxGeometry relative="1" as="geometry">
            <mxPoint x="-151.5700000000002" y="2239" as="targetPoint" />
            <Array as="points">
              <mxPoint x="-152" y="2180" />
            </Array>
            <mxPoint x="-151.5999999999999" y="2159" as="sourcePoint" />
          </mxGeometry>
        </mxCell>
        <mxCell id="MQs7vSqgr3YA6X8p40nq-93" value="CantMax = Cat4" style="rounded=0;whiteSpace=wrap;html=1;" parent="1" vertex="1">
          <mxGeometry x="-221.56999999999996" y="2119" width="120" height="40" as="geometry" />
        </mxCell>
        <mxCell id="MQs7vSqgr3YA6X8p40nq-107" value="" style="edgeStyle=orthogonalEdgeStyle;rounded=0;orthogonalLoop=1;jettySize=auto;html=1;entryX=0.5;entryY=0;entryDx=0;entryDy=0;" parent="1" source="MQs7vSqgr3YA6X8p40nq-100" target="MmN_OchnCAdmlSDN5dMQ-5" edge="1">
          <mxGeometry relative="1" as="geometry" />
        </mxCell>
        <mxCell id="MQs7vSqgr3YA6X8p40nq-129" value="" style="edgeStyle=orthogonalEdgeStyle;rounded=0;orthogonalLoop=1;jettySize=auto;html=1;entryX=0;entryY=0.5;entryDx=0;entryDy=0;" parent="1" source="MQs7vSqgr3YA6X8p40nq-100" target="MQs7vSqgr3YA6X8p40nq-130" edge="1">
          <mxGeometry relative="1" as="geometry">
            <mxPoint x="-350" y="334.9999999999998" as="targetPoint" />
          </mxGeometry>
        </mxCell>
        <mxCell id="MQs7vSqgr3YA6X8p40nq-100" value="Cant = 1&lt;br&gt;Cant &amp;lt;= CantEmp&amp;nbsp;&lt;br&gt;Cant++" style="rhombus;whiteSpace=wrap;html=1;" parent="1" vertex="1">
          <mxGeometry x="-570" y="270" width="140" height="130" as="geometry" />
        </mxCell>
        <mxCell id="MQs7vSqgr3YA6X8p40nq-101" value="" style="edgeStyle=orthogonalEdgeStyle;rounded=0;orthogonalLoop=1;jettySize=auto;html=1;" parent="1" source="MQs7vSqgr3YA6X8p40nq-102" target="MQs7vSqgr3YA6X8p40nq-103" edge="1">
          <mxGeometry relative="1" as="geometry" />
        </mxCell>
        <mxCell id="MQs7vSqgr3YA6X8p40nq-102" value="&quot;Cuantos empleados tiene?&quot;" style="shape=document;whiteSpace=wrap;html=1;boundedLbl=1;" parent="1" vertex="1">
          <mxGeometry x="-560" y="130" width="120" height="50" as="geometry" />
        </mxCell>
        <mxCell id="MQs7vSqgr3YA6X8p40nq-105" value="" style="edgeStyle=orthogonalEdgeStyle;rounded=0;orthogonalLoop=1;jettySize=auto;html=1;" parent="1" source="MQs7vSqgr3YA6X8p40nq-103" target="MQs7vSqgr3YA6X8p40nq-100" edge="1">
          <mxGeometry relative="1" as="geometry" />
        </mxCell>
        <mxCell id="MQs7vSqgr3YA6X8p40nq-103" value="CantEmp" style="shape=parallelogram;perimeter=parallelogramPerimeter;whiteSpace=wrap;html=1;fixedSize=1;" parent="1" vertex="1">
          <mxGeometry x="-560" y="200" width="120" height="40" as="geometry" />
        </mxCell>
        <mxCell id="MQs7vSqgr3YA6X8p40nq-117" value="" style="edgeStyle=orthogonalEdgeStyle;rounded=0;orthogonalLoop=1;jettySize=auto;html=1;" parent="1" source="MQs7vSqgr3YA6X8p40nq-113" edge="1">
          <mxGeometry relative="1" as="geometry">
            <mxPoint x="-500" y="250" as="targetPoint" />
          </mxGeometry>
        </mxCell>
        <mxCell id="MQs7vSqgr3YA6X8p40nq-113" value="1" style="ellipse;whiteSpace=wrap;html=1;aspect=fixed;" parent="1" vertex="1">
          <mxGeometry x="-614.43" y="230" width="40" height="40" as="geometry" />
        </mxCell>
        <mxCell id="MQs7vSqgr3YA6X8p40nq-118" value="1" style="ellipse;whiteSpace=wrap;html=1;aspect=fixed;" parent="1" vertex="1">
          <mxGeometry x="-411.56999999999994" y="2160" width="40" height="40" as="geometry" />
        </mxCell>
        <mxCell id="MQs7vSqgr3YA6X8p40nq-144" value="" style="edgeStyle=orthogonalEdgeStyle;rounded=0;orthogonalLoop=1;jettySize=auto;html=1;" parent="1" source="MQs7vSqgr3YA6X8p40nq-130" target="MQs7vSqgr3YA6X8p40nq-143" edge="1">
          <mxGeometry relative="1" as="geometry" />
        </mxCell>
        <mxCell id="MQs7vSqgr3YA6X8p40nq-130" value="&amp;nbsp;Por1 = CantEmp/(Cant1.100)" style="rounded=0;whiteSpace=wrap;html=1;" parent="1" vertex="1">
          <mxGeometry x="-255.19" y="315" width="170" height="40" as="geometry" />
        </mxCell>
        <mxCell id="MQs7vSqgr3YA6X8p40nq-146" value="" style="edgeStyle=orthogonalEdgeStyle;rounded=0;orthogonalLoop=1;jettySize=auto;html=1;" parent="1" source="MQs7vSqgr3YA6X8p40nq-143" target="MQs7vSqgr3YA6X8p40nq-145" edge="1">
          <mxGeometry relative="1" as="geometry" />
        </mxCell>
        <mxCell id="MQs7vSqgr3YA6X8p40nq-143" value="&amp;nbsp;Por2 = CantEmp/(Cant2.100)" style="rounded=0;whiteSpace=wrap;html=1;" parent="1" vertex="1">
          <mxGeometry x="-255.19" y="385" width="170" height="40" as="geometry" />
        </mxCell>
        <mxCell id="MQs7vSqgr3YA6X8p40nq-148" value="" style="edgeStyle=orthogonalEdgeStyle;rounded=0;orthogonalLoop=1;jettySize=auto;html=1;" parent="1" source="MQs7vSqgr3YA6X8p40nq-145" target="MQs7vSqgr3YA6X8p40nq-147" edge="1">
          <mxGeometry relative="1" as="geometry" />
        </mxCell>
        <mxCell id="MQs7vSqgr3YA6X8p40nq-145" value="&amp;nbsp;Por3 = CantEmp/(Cant3.100)" style="rounded=0;whiteSpace=wrap;html=1;" parent="1" vertex="1">
          <mxGeometry x="-255.19" y="445" width="170" height="40" as="geometry" />
        </mxCell>
        <mxCell id="MQs7vSqgr3YA6X8p40nq-153" value="" style="edgeStyle=orthogonalEdgeStyle;rounded=0;orthogonalLoop=1;jettySize=auto;html=1;" parent="1" source="MQs7vSqgr3YA6X8p40nq-147" target="MQs7vSqgr3YA6X8p40nq-150" edge="1">
          <mxGeometry relative="1" as="geometry" />
        </mxCell>
        <mxCell id="MQs7vSqgr3YA6X8p40nq-147" value="&amp;nbsp;Por4 = CantEmp/(Cant2.100)" style="rounded=0;whiteSpace=wrap;html=1;" parent="1" vertex="1">
          <mxGeometry x="-255.19" y="505" width="170" height="40" as="geometry" />
        </mxCell>
        <mxCell id="MQs7vSqgr3YA6X8p40nq-154" value="" style="edgeStyle=orthogonalEdgeStyle;rounded=0;orthogonalLoop=1;jettySize=auto;html=1;" parent="1" source="MQs7vSqgr3YA6X8p40nq-150" target="MQs7vSqgr3YA6X8p40nq-152" edge="1">
          <mxGeometry relative="1" as="geometry" />
        </mxCell>
        <mxCell id="MQs7vSqgr3YA6X8p40nq-150" value="&quot;La cantidad de empleados de la categoria 1 es&quot; Cant1" style="shape=document;whiteSpace=wrap;html=1;boundedLbl=1;" parent="1" vertex="1">
          <mxGeometry x="-255.19" y="565" width="170" height="50" as="geometry" />
        </mxCell>
        <mxCell id="MQs7vSqgr3YA6X8p40nq-156" value="" style="edgeStyle=orthogonalEdgeStyle;rounded=0;orthogonalLoop=1;jettySize=auto;html=1;" parent="1" source="MQs7vSqgr3YA6X8p40nq-152" target="MQs7vSqgr3YA6X8p40nq-155" edge="1">
          <mxGeometry relative="1" as="geometry" />
        </mxCell>
        <mxCell id="MQs7vSqgr3YA6X8p40nq-152" value="&quot;La cantidad de empleados de la categoria 2 es&quot; Cant2" style="shape=document;whiteSpace=wrap;html=1;boundedLbl=1;" parent="1" vertex="1">
          <mxGeometry x="-255.19" y="635" width="170" height="50" as="geometry" />
        </mxCell>
        <mxCell id="MQs7vSqgr3YA6X8p40nq-158" value="" style="edgeStyle=orthogonalEdgeStyle;rounded=0;orthogonalLoop=1;jettySize=auto;html=1;" parent="1" source="MQs7vSqgr3YA6X8p40nq-155" target="MQs7vSqgr3YA6X8p40nq-157" edge="1">
          <mxGeometry relative="1" as="geometry" />
        </mxCell>
        <mxCell id="MQs7vSqgr3YA6X8p40nq-155" value="&quot;La cantidad de empleados de la categoria 3 es&quot; Cant3" style="shape=document;whiteSpace=wrap;html=1;boundedLbl=1;" parent="1" vertex="1">
          <mxGeometry x="-255.19" y="705" width="170" height="50" as="geometry" />
        </mxCell>
        <mxCell id="MQs7vSqgr3YA6X8p40nq-161" value="" style="edgeStyle=orthogonalEdgeStyle;rounded=0;orthogonalLoop=1;jettySize=auto;html=1;" parent="1" source="MQs7vSqgr3YA6X8p40nq-157" target="MQs7vSqgr3YA6X8p40nq-159" edge="1">
          <mxGeometry relative="1" as="geometry" />
        </mxCell>
        <mxCell id="MQs7vSqgr3YA6X8p40nq-157" value="&quot;La cantidad de empleados de la categoria 4 es&quot; Cant4" style="shape=document;whiteSpace=wrap;html=1;boundedLbl=1;" parent="1" vertex="1">
          <mxGeometry x="-255.19" y="775" width="170" height="50" as="geometry" />
        </mxCell>
        <mxCell id="MQs7vSqgr3YA6X8p40nq-162" value="" style="edgeStyle=orthogonalEdgeStyle;rounded=0;orthogonalLoop=1;jettySize=auto;html=1;" parent="1" source="MQs7vSqgr3YA6X8p40nq-159" target="MQs7vSqgr3YA6X8p40nq-160" edge="1">
          <mxGeometry relative="1" as="geometry" />
        </mxCell>
        <mxCell id="MQs7vSqgr3YA6X8p40nq-159" value="&quot;La cantidad de empleados que cobran mas de 2000 es de &quot; CantMas2000" style="shape=document;whiteSpace=wrap;html=1;boundedLbl=1;" parent="1" vertex="1">
          <mxGeometry x="-255.19" y="845" width="170" height="80" as="geometry" />
        </mxCell>
        <mxCell id="MQs7vSqgr3YA6X8p40nq-167" value="" style="edgeStyle=orthogonalEdgeStyle;rounded=0;orthogonalLoop=1;jettySize=auto;html=1;" parent="1" source="MQs7vSqgr3YA6X8p40nq-160" target="MQs7vSqgr3YA6X8p40nq-163" edge="1">
          <mxGeometry relative="1" as="geometry" />
        </mxCell>
        <mxCell id="MQs7vSqgr3YA6X8p40nq-160" value="&quot;La cantidad de empleados que cobran mas de 1000 es de &quot; CantMas1000" style="shape=document;whiteSpace=wrap;html=1;boundedLbl=1;" parent="1" vertex="1">
          <mxGeometry x="-255.19" y="945" width="170" height="80" as="geometry" />
        </mxCell>
        <mxCell id="MQs7vSqgr3YA6X8p40nq-168" value="" style="edgeStyle=orthogonalEdgeStyle;rounded=0;orthogonalLoop=1;jettySize=auto;html=1;" parent="1" source="MQs7vSqgr3YA6X8p40nq-163" target="MQs7vSqgr3YA6X8p40nq-166" edge="1">
          <mxGeometry relative="1" as="geometry" />
        </mxCell>
        <mxCell id="MQs7vSqgr3YA6X8p40nq-163" value="&quot;El sueldo maximo es de &quot; SuelMax" style="shape=document;whiteSpace=wrap;html=1;boundedLbl=1;" parent="1" vertex="1">
          <mxGeometry x="-255.19" y="1055" width="170" height="50" as="geometry" />
        </mxCell>
        <mxCell id="MQs7vSqgr3YA6X8p40nq-171" value="" style="edgeStyle=orthogonalEdgeStyle;rounded=0;orthogonalLoop=1;jettySize=auto;html=1;" parent="1" source="MQs7vSqgr3YA6X8p40nq-164" target="MQs7vSqgr3YA6X8p40nq-170" edge="1">
          <mxGeometry relative="1" as="geometry" />
        </mxCell>
        <mxCell id="MQs7vSqgr3YA6X8p40nq-164" value="&quot;El sueldo minimo es de &quot; SuelMin" style="shape=document;whiteSpace=wrap;html=1;boundedLbl=1;" parent="1" vertex="1">
          <mxGeometry x="-255.19" y="1205" width="170" height="50" as="geometry" />
        </mxCell>
        <mxCell id="MQs7vSqgr3YA6X8p40nq-169" value="" style="edgeStyle=orthogonalEdgeStyle;rounded=0;orthogonalLoop=1;jettySize=auto;html=1;" parent="1" source="MQs7vSqgr3YA6X8p40nq-166" target="MQs7vSqgr3YA6X8p40nq-164" edge="1">
          <mxGeometry relative="1" as="geometry" />
        </mxCell>
        <mxCell id="MQs7vSqgr3YA6X8p40nq-166" value="&quot;Este sueldo pertenece a &quot; EmpMax" style="shape=document;whiteSpace=wrap;html=1;boundedLbl=1;" parent="1" vertex="1">
          <mxGeometry x="-255.19" y="1130" width="170" height="50" as="geometry" />
        </mxCell>
        <mxCell id="MQs7vSqgr3YA6X8p40nq-173" value="" style="edgeStyle=orthogonalEdgeStyle;rounded=0;orthogonalLoop=1;jettySize=auto;html=1;" parent="1" source="MQs7vSqgr3YA6X8p40nq-170" target="MQs7vSqgr3YA6X8p40nq-172" edge="1">
          <mxGeometry relative="1" as="geometry" />
        </mxCell>
        <mxCell id="MQs7vSqgr3YA6X8p40nq-170" value="&quot;Este minimo pertenece a &quot; EmpMin" style="shape=document;whiteSpace=wrap;html=1;boundedLbl=1;" parent="1" vertex="1">
          <mxGeometry x="-255.19" y="1285" width="170" height="50" as="geometry" />
        </mxCell>
        <mxCell id="MQs7vSqgr3YA6X8p40nq-175" value="" style="edgeStyle=orthogonalEdgeStyle;rounded=0;orthogonalLoop=1;jettySize=auto;html=1;" parent="1" source="MQs7vSqgr3YA6X8p40nq-172" target="MQs7vSqgr3YA6X8p40nq-174" edge="1">
          <mxGeometry relative="1" as="geometry" />
        </mxCell>
        <mxCell id="MQs7vSqgr3YA6X8p40nq-172" value="&quot;La categoria con mas empleados es &quot; CatMax" style="shape=document;whiteSpace=wrap;html=1;boundedLbl=1;" parent="1" vertex="1">
          <mxGeometry x="-255.19" y="1355" width="170" height="50" as="geometry" />
        </mxCell>
        <mxCell id="MQs7vSqgr3YA6X8p40nq-179" value="" style="edgeStyle=orthogonalEdgeStyle;rounded=0;orthogonalLoop=1;jettySize=auto;html=1;" parent="1" source="MQs7vSqgr3YA6X8p40nq-174" target="MQs7vSqgr3YA6X8p40nq-178" edge="1">
          <mxGeometry relative="1" as="geometry" />
        </mxCell>
        <mxCell id="MQs7vSqgr3YA6X8p40nq-174" value="&quot;Los porcentajes de cada categoria son:&quot;&lt;br&gt;&quot;Categoria 1 = &quot; Por1&lt;br&gt;&quot;Categoria 2 = &quot; Por2&lt;br&gt;&quot;Categoria 3 = &quot; Por3&lt;br&gt;&quot;Categoria 4 = &quot; Por4" style="shape=document;whiteSpace=wrap;html=1;boundedLbl=1;" parent="1" vertex="1">
          <mxGeometry x="-255.19" y="1425" width="170" height="130" as="geometry" />
        </mxCell>
        <mxCell id="MQs7vSqgr3YA6X8p40nq-178" value="Inicio" style="ellipse;whiteSpace=wrap;html=1;" parent="1" vertex="1">
          <mxGeometry x="-210.19" y="1590" width="80" height="40" as="geometry" />
        </mxCell>
      </root>
    </mxGraphModel>
  </diagram>
</mxfile>
